<svg width="28" height="28" viewBox="0 0 28 28" fill="none" xmlns="http://www.w3.org/2000/svg">
<path d="M8.27517 12.9162L8.14917 12.8835L17.6167 10.3833L15.1503 19.8333L13.1448 14.8505L8.27517 12.9162ZM28 14C28 16.7689 27.1789 19.4757 25.6406 21.778C24.1022 24.0803 21.9157 25.8747 19.3576 26.9343C16.7994 27.9939 13.9845 28.2712 11.2687 27.731C8.55301 27.1908 6.05844 25.8574 4.10051 23.8995C2.14258 21.9416 0.809205 19.447 0.269012 16.7313C-0.271181 14.0155 0.006066 11.2006 1.06569 8.64243C2.12532 6.08427 3.91973 3.89776 6.22202 2.35943C8.52431 0.821086 11.2311 0 14 0C17.7118 0.00401459 21.2704 1.4803 23.8951 4.10494C26.5197 6.72958 27.996 10.2882 28 14ZM20.8833 7.11667L7.53784 10.6318C7.04722 10.7655 6.61434 11.0572 6.3062 11.4617C5.99807 11.8662 5.83188 12.361 5.83334 12.8695C5.82153 13.3601 5.9691 13.8413 6.25391 14.241C6.53871 14.6406 6.94541 14.9372 7.413 15.0862L11.3552 16.6518L12.929 20.5485C13.0775 21.0203 13.3734 21.4321 13.7732 21.7234C14.173 22.0146 14.6557 22.17 15.1503 22.1667H15.1667C15.6782 22.1666 16.1754 21.9975 16.5809 21.6857C16.9865 21.3738 17.2776 20.9367 17.409 20.4423L20.8833 7.11667Z" fill="white"/>
</svg>
