<svg width="639" height="144" viewBox="0 0 639 144" fill="none" xmlns="http://www.w3.org/2000/svg">
<g clip-path="url(#clip0_2_209)">
<path d="M86.0174 2.4C86.5601 2.4 87 2.83992 87 3.3826C87 15.3216 77.3216 25 65.3826 25H29.8C29.2477 25 28.8 25.4477 28.8 26V59.8C28.8 60.3523 29.2477 60.8 29.8 60.8H72.5778C73.0319 60.8 73.4 61.1681 73.4 61.6222C73.4 73.4288 63.8288 83 52.0222 83H29.8C29.2477 83 28.8 83.4477 28.8 84V129C28.8 136.18 22.9797 142 15.8 142H13.8C6.62029 142 0.799988 136.18 0.799988 129V3.4C0.799988 2.84771 1.2477 2.4 1.79999 2.4H86.0174ZM184.855 119.8H209.349C221.226 119.8 230.855 129.429 230.855 141.306C230.855 141.689 230.544 142 230.161 142H176.855C165.809 142 156.855 133.046 156.855 122V29.4968C156.855 14.5316 168.987 2.4 183.952 2.4C184.451 2.4 184.855 2.80438 184.855 3.30322V119.8ZM363.452 143.4C350.385 143.4 338.385 140.333 327.452 134.2C316.518 128.067 307.852 119.6 301.452 108.8C295.052 97.8667 291.852 85.5333 291.852 71.8C291.852 58.2 295.052 46 301.452 35.2C307.852 24.2667 316.518 15.7333 327.452 9.59999C338.385 3.46666 350.385 0.399994 363.452 0.399994C376.652 0.399994 388.652 3.46666 399.452 9.59999C410.385 15.7333 418.985 24.2667 425.252 35.2C431.652 46 434.852 58.2 434.852 71.8C434.852 85.5333 431.652 97.8667 425.252 108.8C418.985 119.6 410.385 128.067 399.452 134.2C388.518 140.333 376.518 143.4 363.452 143.4ZM363.452 118.4C371.852 118.4 379.252 116.533 385.652 112.8C392.052 108.933 397.052 103.467 400.652 96.4C404.252 89.3333 406.052 81.1333 406.052 71.8C406.052 62.4667 404.252 54.3333 400.652 47.4C397.052 40.3333 392.052 34.9333 385.652 31.2C379.252 27.4667 371.852 25.6 363.452 25.6C355.052 25.6 347.585 27.4667 341.052 31.2C334.652 34.9333 329.652 40.3333 326.052 47.4C322.452 54.3333 320.652 62.4667 320.652 71.8C320.652 81.1333 322.452 89.3333 326.052 96.4C329.652 103.467 334.652 108.933 341.052 112.8C347.585 116.533 355.052 118.4 363.452 118.4ZM621.958 44.4C610.199 44.4 599.997 36.648 589.683 31C584.083 27.9333 577.549 26.4 570.083 26.4C561.816 26.4 554.483 28.2667 548.083 32C541.683 35.7333 536.683 41.0667 533.083 48C529.483 54.9333 527.683 62.9333 527.683 72C527.683 81.3333 529.483 89.4667 533.083 96.4C536.816 103.333 541.949 108.667 548.483 112.4C555.016 116.133 562.616 118 571.283 118C581.949 118 590.683 115.2 597.483 109.6C604.011 104.096 608.388 96.5638 610.616 87.0042C610.76 86.3856 610.286 85.8 609.65 85.8H583.353C572.048 85.8 562.883 76.6355 562.883 65.3304C562.883 64.8166 563.3 64.4 563.813 64.4H637.483C638.035 64.4 638.483 64.8477 638.483 65.4V88.705C638.483 88.7682 638.477 88.8313 638.465 88.8934C636.59 98.5909 632.596 107.559 626.483 115.8C620.349 124.067 612.416 130.733 602.683 135.8C593.083 140.733 582.283 143.2 570.283 143.2C556.816 143.2 544.616 140.2 533.683 134.2C522.883 128.067 514.349 119.6 508.083 108.8C501.949 98 498.883 85.7333 498.883 72C498.883 58.2667 501.949 46 508.083 35.2C514.349 24.2667 522.883 15.8 533.683 9.8C544.616 3.66666 556.749 0.599992 570.083 0.599992C585.816 0.599992 599.483 4.46666 611.083 12.2C622.318 19.5611 630.176 29.8615 634.657 43.1015C634.874 43.7423 634.393 44.4 633.717 44.4H621.958Z" fill="white"/>
</g>
<defs>
<clipPath id="clip0_2_209">
<rect width="639" height="144" fill="white"/>
</clipPath>
</defs>
</svg>
