<svg width="26" height="26" viewBox="0 0 26 26" fill="none" xmlns="http://www.w3.org/2000/svg">
<path fill-rule="evenodd" clip-rule="evenodd" d="M25.313 13.3388C25.313 12.423 25.2308 11.5425 25.0782 10.6971H12.9148V15.6928H19.8653C19.5659 17.3072 18.656 18.6749 17.2882 19.5907V22.8312H21.462C23.9041 20.5828 25.313 17.2719 25.313 13.3388Z" fill="#4285F4"/>
<path fill-rule="evenodd" clip-rule="evenodd" d="M12.9148 25.96C16.4017 25.96 19.3252 24.8035 21.462 22.8311L17.2882 19.5907C16.1317 20.3655 14.6524 20.8234 12.9148 20.8234C9.55105 20.8234 6.70393 18.5516 5.68836 15.499H1.37366V18.8451C3.49872 23.0659 7.86626 25.96 12.9148 25.96Z" fill="#34A853"/>
<path fill-rule="evenodd" clip-rule="evenodd" d="M5.68837 15.499C5.43007 14.7241 5.28331 13.8964 5.28331 13.0452C5.28331 12.194 5.43007 11.3663 5.68837 10.5914V7.2453H1.37366C0.49898 8.98879 0 10.9612 0 13.0452C0 15.1292 0.49898 17.1016 1.37366 18.8451L5.68837 15.499Z" fill="#FBBC05"/>
<path fill-rule="evenodd" clip-rule="evenodd" d="M12.9148 5.26699C14.8109 5.26699 16.5133 5.91859 17.8517 7.19833L21.5559 3.49414C19.3193 1.41017 16.3959 0.130432 12.9148 0.130432C7.86626 0.130432 3.49872 3.02451 1.37366 7.24529L5.68836 10.5914C6.70393 7.53881 9.55105 5.26699 12.9148 5.26699Z" fill="#EA4335"/>
</svg>
