<svg width="33" height="33" viewBox="0 0 33 33" fill="none" xmlns="http://www.w3.org/2000/svg">
<path d="M26.01 23.0988C28.1982 20.1745 29.1974 16.5299 28.8064 12.8985C28.4155 9.26717 26.6634 5.91872 23.9029 3.52721C21.1424 1.1357 17.5784 -0.121302 13.9284 0.00923731C10.2784 0.139776 6.81336 1.64816 4.23076 4.23076C1.64816 6.81336 0.139776 10.2784 0.00923731 13.9284C-0.121302 17.5784 1.1357 21.1424 3.52721 23.9029C5.91872 26.6634 9.26717 28.4155 12.8985 28.8064C16.5299 29.1974 20.1745 28.1982 23.0988 26.01L30.0889 33L33 30.0943L26.01 23.0988ZM14.497 24.7764C12.4639 24.7764 10.4765 24.1736 8.78601 23.044C7.09557 21.9145 5.77802 20.3091 4.99999 18.4308C4.22197 16.5524 4.0184 14.4856 4.41503 12.4916C4.81167 10.4975 5.79069 8.66591 7.2283 7.2283C8.66591 5.79069 10.4975 4.81167 12.4916 4.41503C14.4856 4.0184 16.5524 4.22197 18.4308 4.99999C20.3091 5.77802 21.9145 7.09557 23.044 8.78601C24.1736 10.4765 24.7764 12.4639 24.7764 14.497C24.7739 17.2225 23.6901 19.8356 21.7628 21.7628C19.8356 23.6901 17.2225 24.7739 14.497 24.7764Z" fill="white" fill-opacity="0.7"/>
</svg>
